<?xml version="1.0" encoding="utf-8"?><svg version="1.1" id="Layer_1" xmlns="http://www.w3.org/2000/svg" xmlns:xlink="http://www.w3.org/1999/xlink" x="0px" y="0px" width="122.88px" height="82.185px" viewBox="0 0 122.88 82.185" enable-background="new 0 0 122.88 82.185" xml:space="preserve"><g><path d="M7.059,0H115.82h0.002v0.011c1.948,0.002,3.713,0.798,4.987,2.08c1.268,1.279,2.057,3.045,2.057,4.989h0.014v0.006h-0.014 v72.132c0,1.63-1.322,2.955-2.955,2.955v0.011H2.968C1.329,82.185,0,80.856,0,79.219c0-0.091,0.004-0.182,0.014-0.27V7.086H0V7.084 h0.014c0-1.948,0.789-3.717,2.059-4.994c1.272-1.281,3.034-2.077,4.98-2.08V0H7.059L7.059,0z M15.817,13.767h75.302v10.975H15.817 V13.767L15.817,13.767z M95.736,13.767h11.326v10.975H95.736V13.767L95.736,13.767z M15.817,68.418v-6.234 c3.335-1.482,13.547-4.233,14.028-8.317c0.108-0.921-2.064-4.504-2.563-6.188c-0.626-1-0.964-1.354-0.948-2.587 c0.009-0.694,0.021-1.377,0.118-2.044c0.129-0.853,0.102-0.877,0.549-1.564c0.462-0.712,0.265-3.315,0.265-4.297 c0-9.773,17.125-9.776,17.125,0c0,1.236-0.286,3.506,0.388,4.479c0.324,0.472,0.268,0.528,0.376,1.106 c0.143,0.755,0.154,1.53,0.166,2.32c0.016,1.233-0.32,1.587-0.945,2.587c-0.608,1.769-2.917,5.116-2.719,6.118 c0.735,3.729,10.205,6.233,13.187,7.561v7.062H15.817L15.817,68.418z M60.859,34.385h46.203v6.08H60.859V34.385L60.859,34.385z M61.93,61.769h45.133v6.08H61.93V61.769L61.93,61.769z M81.475,48.077h25.588v6.079H81.475V48.077L81.475,48.077z M61.93,48.077 h14.32v6.079H61.93V48.077L61.93,48.077z M115.82,5.932H7.059H7.052V5.921c-0.297,0-0.578,0.132-0.785,0.34 C6.055,6.477,5.923,6.767,5.923,7.084h0.012v0.002H5.923v69.167h111.034V7.086h-0.012V7.08h0.012c0-0.313-0.132-0.604-0.343-0.816 c-0.209-0.211-0.49-0.343-0.792-0.343v0.011H115.82L115.82,5.932z"/></g></svg>