<svg width="512" height="512" xmlns="http://www.w3.org/2000/svg">
 <!-- Created with UXWing SVG Editor - https://uxwing.com/svg-icon-editor/ -->
 <g>
  <title>background</title>
  <rect fill="none" id="canvas_background" height="514" width="514" y="-1" x="-1"/>
  <g display="none" overflow="visible" y="0" x="0" height="100%" width="100%" id="canvasGrid">
   <rect fill="url(#gridpattern)" stroke-width="0" y="0" x="0" height="100%" width="100%"/>
  </g>
 </g>
 <g>
  <title>Layer 1</title>
  <path stroke="#FF0000" id="svg_1" d="m313.028096,194.916697c0,0 10.238001,-48.391646 0,-64.784143c-10.25006,-16.392498 -14.338025,-27.311638 -36.876099,-35.12875s-14.325966,-6.259204 -30.714004,-5.45957c-16.388037,0.785847 -30.050765,10.919141 -30.050765,16.378711c0,0 -10.238001,0.785847 -14.325966,5.473357c-4.100024,4.68751 -10.925358,26.525791 -10.925358,31.999148s3.412667,42.160015 6.825334,49.96334l-4.063847,1.557908c-3.412667,45.262043 13.650668,50.735401 13.650668,50.735401c6.137977,42.160015 12.288013,24.20961 12.288013,35.12875s-6.150036,7.031265 -6.150036,7.031265s-5.45062,17.164558 -19.101289,23.409976c-13.650668,6.231631 -89.42876,39.788686 -95.590855,46.819951c-6.162095,7.045052 -5.462679,39.81626 -5.462679,39.81626l324.951026,0c0,0 0.711475,-32.771208 -5.45062,-39.81626c-6.174154,-7.045052 -81.952246,-40.58832 -95.602914,-46.819951c-13.650668,-6.245418 -19.101289,-23.409976 -19.101289,-23.409976s-6.150036,3.887876 -6.150036,-7.031265s6.150036,7.031265 12.300072,-35.12875c0,0 17.051277,-5.473357 13.650668,-50.735401l-4.100024,0z" stroke-width="0.001" fill="#000"/>
 </g>
</svg>