<?xml version="1.0" encoding="UTF-8" standalone="no"?> <svg id="Flat" height="512" viewBox="0 0 512 512" width="512" xmlns="http://www.w3.org/2000/svg"><g><path d="m104 240h-9.326a32.493 32.493 0 0 0 -3.646-7.447l-.107-.16 10.736-10.736-11.314-11.314-11.334 11.334a32.2 32.2 0 0 0 -7.009-2.677v-11h-16v11a32.2 32.2 0 0 0 -7.009 2.68l-11.334-11.337-11.314 11.314 10.736 10.736-.107.16a32.493 32.493 0 0 0 -3.646 7.447h-9.326v16h8.111a32.544 32.544 0 0 0 2.131 7.129l9.802 22.871h39.912l9.8-22.871a32.544 32.544 0 0 0 2.133-7.129h8.111z" fill="#fac850"/><path d="m309.657 474.343-8-8a8 8 0 0 0 -5.657-2.343h-32v-48h-16v48h-32a8 8 0 0 0 -5.657 2.343l-8 8a8 8 0 0 0 -2.343 5.657v16h16v-12.687l3.313-3.313h28.687v16h16v-16h28.687l3.313 3.313v12.687h16v-16a8 8 0 0 0 -2.343-5.657z" fill="#f29a49"/><path d="m143.49 485.191-48-128a8 8 0 0 0 -14.98 0l-48 128a8 8 0 0 0 -.51 2.809v8h16v-6.549l12.544-33.451h54.912l12.544 33.451v6.549h16v-8a8 8 0 0 0 -.51-2.809zm-76.946-45.191 21.456-57.216 21.456 57.216z" fill="#25b1fa"/><path d="m479.49 485.191-48-128a8 8 0 0 0 -14.98 0l-48 128a8 8 0 0 0 -.51 2.809v8h16v-6.549l12.544-33.451h54.912l12.544 33.451v6.549h16v-8a8 8 0 0 0 -.51-2.809zm-76.946-45.191 21.456-57.216 21.456 57.216z" fill="#25b1fa"/><g><path d="m248 24h248v264h-248z" fill="#80daff"/><path d="m360 176h104v56h-104z" fill="#f2fbff"/><path d="m384 64h80v64h-80z" fill="#f2fbff"/><circle cx="96" cy="80" fill="#fac850" r="56"/><path d="m77.657 109.657-11.314-11.314 21.657-21.657v-28.686h16v32a8 8 0 0 1 -2.343 5.657z" fill="#fffdfa"/><path d="m88 336h-48l-8-40v-16h64v16z" fill="#80daff"/><g><rect fill="#25b1fa" height="128" rx="10" width="224" x="128" y="160"/><path d="m232 192h16v16h-16z" fill="#2471d6"/></g><path d="m280 64h80v64h-80z" fill="#f2fbff"/><path d="m304 424h-96v-12a20 20 0 0 1 20-20h56a20 20 0 0 1 20 20z" fill="#fac850"/></g><path d="m408 160h16v32h-16z" fill="#25b1fa"/><path d="m416 48h16v32h-16z" fill="#25b1fa"/><path d="m432 272.285v-.285h-48v40a24 24 0 0 0 41.888 16h2.112a28 28 0 0 0 4-55.715zm0 39.029v-22.628a12 12 0 0 1 0 22.628z" fill="#fac850"/><path d="m200 224h80v16h-80z" fill="#2471d6"/><path d="m272 328v8h-64v-8l16-48v-48h32v48z" fill="#80daff"/><path d="m16 328h480v32h-480z" fill="#2471d6"/><path d="m312 48h16v32h-16z" fill="#25b1fa"/></g></svg>