<svg xmlns="http://www.w3.org/2000/svg" viewBox="0 0 184.2 123.66"><defs><style>.cls-1{fill:#5af;}.cls-10,.cls-12,.cls-14,.cls-15,.cls-2,.cls-20,.cls-6,.cls-7,.cls-8{fill:none;stroke-miterlimit:10;}.cls-12,.cls-14,.cls-2,.cls-20{stroke:#000;}.cls-15,.cls-2{stroke-width:0.3px;}.cls-3{fill:#e8878b;}.cls-4{fill:#d6656d;}.cls-5{fill:#070707;}.cls-10,.cls-15,.cls-6{stroke:#b73d46;}.cls-6,.cls-7,.cls-8{stroke-width:0.5px;}.cls-7{stroke:#fff;}.cls-8{stroke:#f9eaec;}.cls-9{fill:#dd7a81;}.cls-10,.cls-14{stroke-linecap:round;}.cls-10,.cls-12,.cls-14{stroke-width:0.3px;}.cls-11{fill:#79c4bd;}.cls-13{fill:#6cb7ae;}.cls-16{fill:#7988bf;}.cls-17{fill:#a0baea;}.cls-18{fill:#b8cafc;}.cls-19{fill:#fff;}</style></defs><g id="Layer_2" data-name="Layer 2"><g id="Layer_1-2" data-name="Layer 1"><path class="cls-1" d="M166.92,117.47l-2.07-34.4-1-17.66s.52-10.24-14.86-15.25a10.75,10.75,0,0,0-1.13-.39l-16.66-4.85a12.41,12.41,0,0,0-7.46.17l-16.44,5.56-.15.06v-.06C90.73,56.22,91.76,67,91.76,67l-3,50.5Z"/><line class="cls-2" x1="102.46" y1="117.04" x2="104.62" y2="72.74"/><line class="cls-2" x1="153.56" y1="117.04" x2="152.02" y2="73.78"/><path class="cls-3" d="M127.15,55.43h0a7.3,7.3,0,0,1-7.44-7.88L121.11,30A5.52,5.52,0,0,1,126.49,25h0a5.5,5.5,0,0,1,5.58,4.83l2.17,17.44A7.31,7.31,0,0,1,127.15,55.43Z"/><path class="cls-4" d="M133.76,43.37s-10,1.66-12.9-6.19L132.72,35Z"/><rect class="cls-3" x="114.61" y="4.62" width="23.43" height="33.98" rx="11.71" transform="translate(-0.44 2.74) rotate(-1.24)"/><path class="cls-5" d="M126,4.43c-14.58.31-11.37,15.72-11.37,15.72l.08,3.89h.41l1-5.67a6.24,6.24,0,0,1,.69-2.22l1.53-2.88a4.39,4.39,0,0,1,5.87-1.85h0a4.41,4.41,0,0,0,4,0l.34-.18a4.4,4.4,0,0,1,5.9,1.79l1.35,2.49a6.31,6.31,0,0,1,.69,2l1.26,6.05h.41L138,19.65S140.91,4.1,126,4.43Z"/><path class="cls-3" d="M138.14,26.07c1.58,0,2.82-2.15,2.78-3.82S139.59,20,138,20Z"/><path class="cls-6" d="M139.66,21.94a2.55,2.55,0,0,0-.94,2.2,1.48,1.48,0,0,1,1-.27"/><path class="cls-3" d="M114.72,26.58c-1.58,0-2.91-2-2.94-3.7s1.23-2.31,2.81-2.34Z"/><path class="cls-6" d="M113.1,22.52a2.52,2.52,0,0,1,1,2.15,1.5,1.5,0,0,0-1-.23"/><path class="cls-6" d="M126.08,23.83s-.42,4.78-1,5.62,1.72.57,1.72.57"/><path class="cls-6" d="M124.87,33.41a6.21,6.21,0,0,0,5.21-1.16"/><circle class="cls-5" cx="132.43" cy="23.11" r="1.03"/><path class="cls-5" d="M130,21.74l-.37-.45a4.76,4.76,0,0,1,5.95-.13l-.36.46A4.1,4.1,0,0,0,130,21.74Z"/><circle class="cls-5" cx="120.44" cy="23.37" r="1.03"/><path class="cls-5" d="M118,22l-.37-.45a4.76,4.76,0,0,1,5.95-.13l-.36.46A4.1,4.1,0,0,0,118,22Z"/><path class="cls-5" d="M139.23,1.82s6.68,13-1.3,14.26c0,0-8.66-4.51-17.46-2.43,0,0-3.07.27-3.76,2.49l-.11-5L126,4.62s1.7-3.87.91-4.62Z"/><path class="cls-7" d="M137.06,5.16s2.12,6.05-1.66,6.42"/><circle class="cls-8" cx="120.44" cy="23.34" r="5.16"/><circle class="cls-8" cx="132.43" cy="23.34" r="5.16"/><line class="cls-8" x1="125.6" y1="23.34" x2="127.27" y2="23.34"/><path class="cls-3" d="M123,120.85l24.13-.19s5.27-4.86,1.25-9.41l-25.31.31Z"/><path class="cls-9" d="M137.88,120.73s2.91-5.54-.35-9.25l-1.41.07-1,9.21Z"/><path class="cls-3" d="M158.22,121.53l1.82-.43a2.9,2.9,0,0,0,1.9-4.19l-2.26-4.19a2.89,2.89,0,0,0-2.53-1.53l-8.26,0a2.9,2.9,0,0,0-2.89,2.87l0,5.18a2.61,2.61,0,0,0,2.68,2.63l9.58-.36"/><path class="cls-3" d="M158.33,117.78l2.29,3.19a2.15,2.15,0,0,0,1.8.89h.23a1.07,1.07,0,0,0,.93-1.55l-1.41-2.83Z"/><path class="cls-3" d="M156.67,113.73s2.42,2.45,1.55,7.38a1.68,1.68,0,0,1-.68,1.09,2.45,2.45,0,0,1-1.17.44h0a1.7,1.7,0,0,1-1.84-1.8c.08-1.57.06-4.39-1.08-5.82a1.55,1.55,0,0,1,1.05-1.5A2.65,2.65,0,0,1,156.67,113.73Z"/><path class="cls-10" d="M157.65,115.29a9.81,9.81,0,0,1,.57,5.82,1.68,1.68,0,0,1-.68,1.09,2.45,2.45,0,0,1-1.17.44h0a1.7,1.7,0,0,1-1.84-1.8,14.11,14.11,0,0,0-.35-4.31"/><path class="cls-3" d="M153.27,114.24s2.42,2.45,1.56,7.38a1.73,1.73,0,0,1-.69,1.09,2.45,2.45,0,0,1-1.17.44h0a1.7,1.7,0,0,1-1.84-1.8c.09-1.57.06-4.39-1.08-5.82a1.55,1.55,0,0,1,1-1.5A2.65,2.65,0,0,1,153.27,114.24Z"/><path class="cls-10" d="M154.21,115.71a9.8,9.8,0,0,1,.62,5.91,1.73,1.73,0,0,1-.69,1.09,2.45,2.45,0,0,1-1.17.44h0a1.7,1.7,0,0,1-1.84-1.8,15.41,15.41,0,0,0-.24-3.89"/><line class="cls-10" x1="160.62" y1="120.97" x2="158.33" y2="117.78"/><path class="cls-11" d="M94.14,79.42l1.28,27,39,.9a1.9,1.9,0,0,1,1.66,1c2.53,4.91-.15,10-1.47,12a1.93,1.93,0,0,1-1.67.87L95.1,120.14l-9.28,0a4.26,4.26,0,0,1-4.29-4.39L82.47,84,79.79,64.28C93.82,67.85,94.14,79.42,94.14,79.42Z"/><path class="cls-12" d="M95.42,106.46s-1.57.63-3.38,3.52"/><path class="cls-11" d="M85.91,77.7l-1.23,45.46H37.36L36.11,77.7c-.72-6.2,2.41-12.11,7.41-14l14.26-5.36a9.07,9.07,0,0,1,6.45,0l14.28,5.36C83.5,65.59,86.64,71.5,85.91,77.7Z"/><line class="cls-12" x1="84.66" y1="106.49" x2="84.66" y2="97.9"/><polygon class="cls-13" points="84.61 123.13 37.39 121.67 37.39 116.16 36.72 100.02 84.25 119.89 84.61 123.13"/><path class="cls-3" d="M48.16,121l24.13-.2s5.27-4.85,1.25-9.4l-25.31.3Z"/><path class="cls-9" d="M63,120.9s2.91-5.54-.35-9.26l-1.41.07-1,9.21Z"/><path class="cls-3" d="M83.36,121.69l1.82-.42a2.9,2.9,0,0,0,1.9-4.19l-2.26-4.2a2.9,2.9,0,0,0-2.53-1.52l-8.26,0a2.9,2.9,0,0,0-2.89,2.87l0,5.18a2.6,2.6,0,0,0,2.68,2.62l9.58-.36"/><path class="cls-3" d="M83.47,117.94l2.29,3.19a2.13,2.13,0,0,0,1.8.89h.23a1.07,1.07,0,0,0,.93-1.54l-1.41-2.83Z"/><path class="cls-3" d="M81.81,113.9s2.42,2.45,1.55,7.38a1.63,1.63,0,0,1-.68,1.08,2.56,2.56,0,0,1-1.17.45h0A1.71,1.71,0,0,1,79.63,121c.09-1.57.07-4.4-1.07-5.83a1.55,1.55,0,0,1,1-1.5A2.63,2.63,0,0,1,81.81,113.9Z"/><path class="cls-10" d="M82.79,115.46a9.81,9.81,0,0,1,.57,5.82,1.63,1.63,0,0,1-.68,1.08,2.56,2.56,0,0,1-1.17.45h0A1.71,1.71,0,0,1,79.63,121a13.76,13.76,0,0,0-.34-4.31"/><path class="cls-3" d="M78.41,114.41s2.42,2.45,1.55,7.38a1.68,1.68,0,0,1-.68,1.09,2.56,2.56,0,0,1-1.17.44h0a1.69,1.69,0,0,1-1.84-1.79c.09-1.57.06-4.4-1.08-5.83a1.55,1.55,0,0,1,1-1.5A2.63,2.63,0,0,1,78.41,114.41Z"/><path class="cls-10" d="M79.35,115.87a9.78,9.78,0,0,1,.61,5.92,1.68,1.68,0,0,1-.68,1.09,2.56,2.56,0,0,1-1.17.44h0a1.69,1.69,0,0,1-1.84-1.79,15.38,15.38,0,0,0-.24-3.89"/><line class="cls-10" x1="85.76" y1="121.13" x2="83.47" y2="117.94"/><path class="cls-11" d="M42.36,92.77l-4.54-24L11.1,109.63A8,8,0,0,0,17.71,122l40.34.42a1.94,1.94,0,0,0,1.67-.88c1.32-2,4-7.08,1.47-12a1.91,1.91,0,0,0-1.66-1l-28.9-.66Z"/><path class="cls-14" d="M30.76,107.94s-1.57.64-3.38,3.53"/><line class="cls-12" x1="36.72" y1="100.02" x2="47.03" y2="85.45"/><path class="cls-5" d="M65.11,27.93a18.57,18.57,0,0,1-9.79,9.39c-7,2.64-2.51,9.52-2.51,9.52s-3.57,5.42.93,7.66,6.74,2,7.8,1.72c0,0,2.38,7.67,13.62,3.31s2.11-11.11,2.11-11.11,4.67-6.87-2.15-13.92c0,0-1.85-2.39-1.3-7.7"/><path class="cls-3" d="M62.21,68.94h0a6.9,6.9,0,0,1-6.86-7.59L57,44.85a5.2,5.2,0,0,1,5.17-4.67h0a5.2,5.2,0,0,1,5.17,4.67l1.69,16.5A6.9,6.9,0,0,1,62.21,68.94Z"/><circle class="cls-7" cx="72" cy="41.85" r="3.56" transform="translate(-8.99 22.45) rotate(-16.7)"/><path class="cls-4" d="M68.72,58s-10,0-12-10.13l10.64-3Z"/><rect class="cls-3" x="51.16" y="19.43" width="22.11" height="32.07" rx="9.93"/><path class="cls-5" d="M56.35,29.94s1-1.88,9.24-2.14c0,0,5.82,4.76,9.26-1.33S68.54,7.06,62.29,17.35c0,0-5.72-2.17-12.56,1.85A16,16,0,0,0,43,27.93a18.52,18.52,0,0,1-9.78,9.39c-7,2.64-2.51,9.52-2.51,9.52s-3.57,5.42.92,7.66,6.75,2,7.81,1.72c0,0,2.37,7.67,13.61,3.31s2.12-11.11,2.12-11.11,5.76-4.63-1-8.33C54.16,40.09,54.59,32.39,56.35,29.94Z"/><path class="cls-3" d="M54.09,39.92c-1.49,0-2.7-2-2.7-3.55s1.21-2.16,2.7-2.16Z"/><path class="cls-15" d="M52.59,36.05a2.39,2.39,0,0,1,.93,2.06,1.39,1.39,0,0,0-.93-.24"/><path class="cls-15" d="M64.2,35.67s.49,4.5,1.08,5.28-1.61.57-1.61.57"/><path class="cls-15" d="M62.4,45.26a5.89,5.89,0,0,0,5,0"/><circle class="cls-5" cx="70.82" cy="35.24" r="0.99"/><path class="cls-5" d="M68.46,33.91l-.36-.43a4.58,4.58,0,0,1,5.72-.12l-.35.44A3.94,3.94,0,0,0,68.46,33.91Z"/><circle class="cls-5" cx="59.28" cy="35.49" r="0.99"/><path class="cls-5" d="M56.92,34.16l-.36-.43a4.59,4.59,0,0,1,5.73-.12l-.35.44A4,4,0,0,0,56.92,34.16Z"/><path class="cls-7" d="M52.74,41.85s3.09,3.64.07,5"/><path class="cls-7" d="M33.42,51.5s.93,3.47,6.7,2.12"/><circle class="cls-5" cx="61.17" cy="26.8" r="4.6" transform="translate(-5.12 18.7) rotate(-16.7)"/><path class="cls-12" d="M86.42,83.11s2.5,4.48,2.31,7.35-4.07,7.44-4.07,7.44"/><path class="cls-16" d="M69.65,119.58H117a1,1,0,0,1,1,1v1.59a1,1,0,0,1-1,1H69.65a0,0,0,0,1,0,0v-3.59a0,0,0,0,1,0,0Z" transform="translate(187.65 242.74) rotate(-180)"/><path class="cls-17" d="M180.58,80.14H127.33a1.58,1.58,0,0,0-1.51,1.14l-12,41.88h56l12.24-41A1.58,1.58,0,0,0,180.58,80.14Z"/><path class="cls-18" d="M182.63,80.14H129.38a1.57,1.57,0,0,0-1.51,1.14l-12,41.88h54.82a1.58,1.58,0,0,0,1.51-1.12l11.9-39.88A1.58,1.58,0,0,0,182.63,80.14Z"/><circle class="cls-19" cx="151.84" cy="102.25" r="5.89"/><line class="cls-20" x1="183.32" y1="123.16" y2="123.16"/></g></g></svg>