<?xml version="1.0" encoding="UTF-8" standalone="no"?> <svg id="Layer_1" data-name="Layer 1" xmlns="http://www.w3.org/2000/svg" viewBox="0 0 128 128"><defs><style>.cls-1{fill:#2e79bd;}.cls-2{fill:#2d3e50;}</style></defs><title>b</title><path class="cls-1" d="M82.12551,65.17275A65.03308,65.03308,0,0,1,70.745,67.48664a.37734.37734,0,0,1-.2623-.68007,10.78077,10.78077,0,0,0,4.44858-8.72529V49.03535l-1.61479-.44072a21.11451,21.11451,0,0,1-4.64229-1.88827l-1.07478-.59052-1.06608.60794a25.81675,25.81675,0,0,1-11.401,3.60584l-2.06422.12194v7.62973A10.89715,10.89715,0,0,0,57.521,66.80453a.37758.37758,0,0,1-.25858.68284,65.08445,65.08445,0,0,1-11.38857-2.31462,2.74064,2.74064,0,0,1-1.829-3.49609l5.83553-17.39509A14.89264,14.89264,0,0,1,64.00054,34.126a8.28015,8.28015,0,0,1,2.968.486,9.94066,9.94066,0,0,1,2.4749,1.58554,4.09049,4.09049,0,0,1,2.50508.24722A14.04459,14.04459,0,0,1,78.119,44.28157l5.83553,17.39509A2.73932,2.73932,0,0,1,82.12551,65.17275Z"/><path class="cls-2" d="M125.857,93.874H95.92355a4.42765,4.42765,0,0,0,.10006-2.01454c-1.641-9.07432-1.89447-9.83477-2.00342-10.16385A12.7206,12.7206,0,0,0,89.831,75.75871c3.85565-1.46088,7.52228-2.69049,7.52228-2.69049V69.85741l-.269-.20458a9.27633,9.27633,0,0,1-3.52657-5.9013l-.05559-.34242h-.26238a3.59081,3.59081,0,0,1-3.322-2.23246,3.92471,3.92471,0,0,1-.487-1.89446,3.58876,3.58876,0,0,1,.25349-1.32969,1.86613,1.86613,0,0,1,.72043-1.15846l.89832-.54477-.22458-.97169c-1.61875-7.06423,3.8512-13.42581,11.2-13.60148.17788-.00444.35576-.00444.53143-.00221.17343-.00223.35131-.00223.52919.00221,7.34885.17567,12.821,6.53725,11.2,13.60148l-.22236.97169.89608.54477a1.85661,1.85661,0,0,1,.72043,1.15846,3.59063,3.59063,0,0,1,.25571,1.32969,3.92671,3.92671,0,0,1-.48918,1.89446,3.58774,3.58774,0,0,1-3.31976,2.23246h-.2646l-.05336.34242a9.295,9.295,0,0,1-3.52655,5.9013l-.27128.20458v3.21081s9.72138,3.26195,14.15069,5.47216a4.71526,4.71526,0,0,1,2.54818,3.43094A102.61382,102.61382,0,0,1,125.857,93.874Z"/><path class="cls-1" d="M92.8506,92.43313c-.51141-2.83726-1.62987-8.93869-1.88779-9.71248-1.44308-4.31814-5.30317-6.097-9.23663-7.62456q-4.55273-1.76774-9.10545-3.52878L64,80.1858l-8.62072-8.61848q-4.55273,1.76438-9.10545,3.52878c-3.93347,1.52758-7.79355,3.30642-9.23663,7.62456-.25793.77379-1.37638,6.87522-1.88779,9.71248A1.2221,1.2221,0,0,0,36.35234,93.874H91.64766A1.2221,1.2221,0,0,0,92.8506,92.43313Z"/><path class="cls-2" d="M2.143,93.874H32.07645a4.42765,4.42765,0,0,1-.10006-2.01454c1.641-9.07432,1.89447-9.83477,2.00342-10.16385A12.7206,12.7206,0,0,1,38.169,75.75871c-3.85565-1.46088-7.52228-2.69049-7.52228-2.69049V69.85741l.269-.20458a9.27633,9.27633,0,0,0,3.52657-5.9013l.05559-.34242h.26238a3.59081,3.59081,0,0,0,3.322-2.23246,3.92471,3.92471,0,0,0,.487-1.89446,3.58876,3.58876,0,0,0-.25349-1.32969,1.86613,1.86613,0,0,0-.72043-1.15846l-.89832-.54477.22458-.97169c1.61875-7.06423-3.8512-13.42581-11.2-13.60148-.17788-.00444-.35576-.00444-.53143-.00221-.17343-.00223-.35131-.00223-.52919.00221-7.34885.17567-12.821,6.53725-11.2,13.60148l.22236.97169-.89608.54477a1.85661,1.85661,0,0,0-.72043,1.15846,3.59063,3.59063,0,0,0-.25571,1.32969,3.92671,3.92671,0,0,0,.48918,1.89446,3.58774,3.58774,0,0,0,3.31976,2.23246h.2646l.05336.34242a9.295,9.295,0,0,0,3.52655,5.9013l.27128.20458v3.21081S10.01435,76.33017,5.585,78.54038a4.71526,4.71526,0,0,0-2.54818,3.43094A102.61383,102.61383,0,0,0,2.143,93.874Z"/></svg>