<?xml version="1.0" encoding="UTF-8" standalone="no"?> <svg xmlns="http://www.w3.org/2000/svg" data-name="Layer 1" viewBox="0 0 32 32"><path fill="#54c1b2" d="M4.81129,14.78992a11.48928,11.48928,0,0,0,22.66254-2.044c.00073-.01215.003-.0238.00366-.03595.01-.17.02-.33.02-.5v-.09c0-.04962-.00616-.09613-.00708-.14526a11.51243,11.51243,0,0,0-.29907-2.42474,1.21511,1.21511,0,0,0-.05-.18,1.63363,1.63363,0,0,1-.10382-.2h-18.4v.02l-.00336.01355L4.90131,9.16992A11.46876,11.46876,0,0,0,4.81129,14.78992Z"/><path fill="#fdd402" d="M27.19,9.38A11.48928,11.48928,0,0,0,4.52747,11.424c-.00073.01215-.003.0238-.00366.03595-.01.17-.02.33-.02.5v.09c0,.04962.00616.09613.00708.14526A11.51243,11.51243,0,0,0,4.81,14.62a1.21511,1.21511,0,0,0,.05.18,1.63363,1.63363,0,0,1,.10382.2h18.4v-.02l.00336-.01355L27.1,15A11.46876,11.46876,0,0,0,27.19,9.38Z"/><path fill="#fff" d="M25.66,11.96v.09a2.82042,2.82042,0,0,1-.02.41,9.12094,9.12094,0,0,1-.44,2.52V15H6.8a1.21511,1.21511,0,0,1-.05-.18,8.76643,8.76643,0,0,1-.39-2.36,2.75305,2.75305,0,0,1-.02-.41v-.09c0-.17.00995-.33.02-.5A9.48392,9.48392,0,0,1,8.9,5.53a3.91546,3.91546,0,0,1,.34-.37c.12-.12.24-.23.37-.34A9.58069,9.58069,0,0,1,15.5,2.4C15.66,2.39,15.83,2.39,16,2.39s.33,0,.5.00995a9.665,9.665,0,0,1,5.97,2.48c.12006.11.24005.22.36.34a3.91546,3.91546,0,0,1,.34.37,9.56808,9.56808,0,0,1,2.47,5.87C25.65,11.63,25.66,11.79,25.66,11.96Z"/><path fill="#fff" d="M6.34138,12.21v-.09a2.82042,2.82042,0,0,1,.02-.41,9.12094,9.12094,0,0,1,.44-2.52v-.02h18.4a1.21511,1.21511,0,0,1,.05.18,8.76643,8.76643,0,0,1,.39,2.36,2.75305,2.75305,0,0,1,.02.41v.09c0,.17-.00995.33-.02.5a9.48392,9.48392,0,0,1-2.54,5.93,3.91545,3.91545,0,0,1-.34.37c-.12.12-.24.23-.37.34a9.58069,9.58069,0,0,1-5.89,2.42c-.16.00995-.33.00995-.5.00995s-.33,0-.5-.00995a9.665,9.665,0,0,1-5.97-2.48c-.12006-.11-.24005-.22-.36-.34a3.91546,3.91546,0,0,1-.34-.37,9.56808,9.56808,0,0,1-2.47-5.87C6.35133,12.53992,6.34138,12.37994,6.34138,12.21Z"/><path fill="#fff" d="M25.66,11.96v.09a2.82042,2.82042,0,0,1-.02.41,9.12094,9.12094,0,0,1-.44,2.52V15H6.8a1.21511,1.21511,0,0,1-.05-.18,8.76643,8.76643,0,0,1-.39-2.36,2.75305,2.75305,0,0,1-.02-.41v-.09c0-.17.00995-.33.02-.5A9.48392,9.48392,0,0,1,8.9,5.53a3.91546,3.91546,0,0,1,.34-.37c.12-.12.24-.23.37-.34A9.58069,9.58069,0,0,1,15.5,2.4C15.66,2.39,15.83,2.39,16,2.39s.33,0,.5.00995a9.665,9.665,0,0,1,5.97,2.48c.12006.11.24005.22.36.34a3.91546,3.91546,0,0,1,.34.37,9.56808,9.56808,0,0,1,2.47,5.87C25.65,11.63,25.66,11.79,25.66,11.96Z"/><path fill="#e0e0e2" d="M7.36,12.46a2.75305,2.75305,0,0,1-.02-.41v-.09c0-.17.00995-.33.02-.5A9.48392,9.48392,0,0,1,9.9,5.53a3.91546,3.91546,0,0,1,.34-.37c.12-.12.24-.23.37-.34A9.58069,9.58069,0,0,1,16.5,2.4C16.33,2.39,16.17,2.39,16,2.39s-.34,0-.5.00995A9.58069,9.58069,0,0,0,9.61,4.82c-.13.11-.25.22-.37.34a3.91546,3.91546,0,0,0-.34.37,9.48392,9.48392,0,0,0-2.54,5.93c-.01.17-.02.33-.02.5v.09a2.75305,2.75305,0,0,0,.02.41,8.76643,8.76643,0,0,0,.39,2.36A1.21511,1.21511,0,0,0,6.8,15h1a1.21511,1.21511,0,0,1-.05-.18A8.76643,8.76643,0,0,1,7.36,12.46Z"/><path fill="#fff" d="M25.2,14.98V15H23.36v-.02a.0098.0098,0,0,0,.01-.01Z"/><path fill="#3c3b41" d="M16.5 1.4V4.18a.5.5 0 1 1-1 0V1.4C15.66 1.39 15.83 1.39 16 1.39S16.33 1.39 16.5 1.4zM26.66 11.96v.09a2.82042 2.82042 0 0 1-.02.41H23.78a.5.5 0 0 1 0-1h2.86C26.65 11.63 26.66 11.79 26.66 11.96zM8.64 11.96a.49514.49514 0 0 1-.5.5H5.36a2.75305 2.75305 0 0 1-.02-.41v-.09c0-.17.00995-.33.02-.5H8.14A.49518.49518 0 0 1 8.64 11.96z"/><path fill="#3c3b41" d="M16.5 1.4V4.18a.5.5 0 1 1-1 0V1.4C15.66 1.39 15.83 1.39 16 1.39S16.33 1.39 16.5 1.4zM26.66 11.96v.09a2.82042 2.82042 0 0 1-.02.41H23.78a.5.5 0 0 1 0-1h2.86C26.65 11.63 26.66 11.79 26.66 11.96zM8.64 11.96a.49514.49514 0 0 1-.5.5H5.36a2.75305 2.75305 0 0 1-.02-.41v-.09c0-.17.00995-.33.02-.5H8.14A.49518.49518 0 0 1 8.64 11.96zM10.7957 6.75567a.49514.49514 0 0 1-.70711 0L8.12282 4.78989a2.75305 2.75305 0 0 1 .27578-.304l.06366-.06366c.1202-.1202.24035-.22628.36767-.33944L10.7957 6.04856A.49518.49518 0 0 1 10.7957 6.75567zM21.2043 6.75567a.49514.49514 0 0 1 0-.70711l1.96578-1.96578a2.75305 2.75305 0 0 1 .304.27578l.06366.06366c.1202.1202.22628.24035.33944.36767L21.9114 6.75567A.49518.49518 0 0 1 21.2043 6.75567zM16.00488 11.05566a.49992.49992 0 0 1-.5-.498l-.01025-2.77148a.5.5 0 0 1 .498-.502h.002a.49992.49992 0 0 1 .5.498l.01025 2.77148a.5.5 0 0 1-.498.502z"/><path fill="#54c1b2" d="M27.1,15l-1.9-.02a9.12094,9.12094,0,0,0,.44-2.52,2.82042,2.82042,0,0,0,.02-.41v-.09c0-.17-.00995-.33-.02-.5a9.56808,9.56808,0,0,0-2.47-5.87,3.91546,3.91546,0,0,0-.34-.37c-.12-.12-.24-.23-.36-.34A9.665,9.665,0,0,0,16.5,2.4C16.33,2.39,16.17,2.39,16,2.39s-.34,0-.5.00995A9.58069,9.58069,0,0,0,9.61,4.82c-.13.11-.25.22-.37.34a3.91546,3.91546,0,0,0-.34.37,9.48392,9.48392,0,0,0-2.54,5.93c-.01.17-.02.33-.02.5v.09a2.75305,2.75305,0,0,0,.02.41,8.76643,8.76643,0,0,0,.39,2.36A1.21511,1.21511,0,0,0,6.8,15H4.96a1.78566,1.78566,0,0,0-.1-.2,1.21511,1.21511,0,0,1-.05-.18,11.8666,11.8666,0,0,1-.3-2.42c0-.05-.01-.1-.01-.15v-.09c0-.17.01-.33.02-.5,0-.00995.01-.02.01-.04A11.49031,11.49031,0,1,1,27.1,15Z"/><path fill="#00ac94" d="M5.81,14.62a11.8666,11.8666,0,0,1-.3-2.42c0-.05-.01-.1-.01-.15v-.09c0-.17.01-.33.02-.5,0-.00995.01-.02.01-.04A11.44452,11.44452,0,0,1,16.475.52533,11.44932,11.44932,0,0,0,4.53,11.42c0,.02-.01.03-.01.04-.01.17-.02.33-.02.5v.09c0,.05.01.1.01.15a11.8666,11.8666,0,0,0,.3,2.42,1.21511,1.21511,0,0,0,.05.18,1.78566,1.78566,0,0,1,.1.2h1a1.78566,1.78566,0,0,0-.1-.2A1.21511,1.21511,0,0,1,5.81,14.62Z"/><path fill="#3c3b41" d="M19.25781,12.5H17.37988a.5.5,0,0,1,0-1h1.87793a.5.5,0,0,1,0,1Z"/><circle cx="16" cy="12" r="1.38" fill="#fdd402"/><path fill="#4ebaea" d="M12.5,26.44v5.07H.5V26.44a2.28752,2.28752,0,0,1,1.71-2.21l2.65-.69H8.14l2.65.69a1.83281,1.83281,0,0,1,.46.18A2.265,2.265,0,0,1,12.5,26.44Z"/><path fill="#2e99d4" d="M3.21,24.23l2.65-.69h-1l-2.65.69A2.28752,2.28752,0,0,0,.5,26.44v5.07h1V26.44A2.28752,2.28752,0,0,1,3.21,24.23Z"/><path fill="#fdc475" d="M7.93,22.79v1.47a1.43,1.43,0,0,1-2.86,0V22.79Z"/><path fill="#2e99d4" d="M3.86,28.8v2.71h-1V28.8a.49514.49514,0,0,1,.5-.5A.50142.50142,0,0,1,3.86,28.8Z"/><path fill="#58565d" d="M5.65676,15.00136a1.71833,1.71833,0,0,1-1.08195-.3831l-.932-.75542v4.55408h0l.91954-.916a.58327.58327,0,0,1,.53168-.15185,6.99015,6.99015,0,0,0,2.83511-.00482.56184.56184,0,0,1,.5087.15695l.91925.91576h0v-2.277a1.144,1.144,0,0,0-1.14286-1.13852H5.65676Z"/><path fill="#faa827" d="M7.93,22.79v.82a2.54292,2.54292,0,0,1-.39.24l-.53.26a1.144,1.144,0,0,1-1.02,0l-.53-.26a2.54292,2.54292,0,0,1-.39-.24v-.82Z"/><path fill="#3c3b41" d="M4.64288,16.13989V14.65637c-.02112-.01556-.04755-.02155-.06805-.03815l-.93195-.75537v4.55408l.91949-.91608a.52976.52976,0,0,1,.08051-.04669Z"/><path fill="#fdc475" d="M9.35985,18.41692l-.92-.91651a.56558.56558,0,0,0-.50857-.1537,7.201,7.201,0,0,1-1.42857.148,6.95424,6.95424,0,0,1-1.41143-.148.594.594,0,0,0-.53143.1537l-.91429.91651H3.64286l.29738,2.61977a2.84775,2.84775,0,0,0,1.52391,1.9876l.52476.26138a1.14675,1.14675,0,0,0,1.0222,0l.52476-.26138a2.84775,2.84775,0,0,0,1.52391-1.9876l.29738-2.61977"/><path fill="#faa827" d="M6.98889,23.28564l-.52472-.26135a2.84778,2.84778,0,0,1-1.52393-1.98761l-.29736-2.61975h.00269l.91431-.91656a.5776.5776,0,0,1,.1134-.06525c-.18665-.02271-.37408-.04529-.582-.08844a.594.594,0,0,0-.53143.15369l-.91431.91656H3.64288l.29736,2.61975a2.84778,2.84778,0,0,0,1.52393,1.98761l.52472.26135A1.14569,1.14569,0,0,0,7,23.28967Z"/><path fill="#37b678" d="M31.5,26.44v5.07h-12V26.44a2.265,2.265,0,0,1,1.25-2.03,1.83281,1.83281,0,0,1,.46-.18l.04-.01,2.61-.68h3.28l2.65.69A2.28752,2.28752,0,0,1,31.5,26.44Z"/><path fill="#fdc475" d="M26.93,22.79v1.47a1.43,1.43,0,0,1-2.86,0V22.79Z"/><path fill="#00a653" d="M29.14,28.8v2.71h-1V28.8a.50142.50142,0,0,1,.5-.5A.49514.49514,0,0,1,29.14,28.8Z"/><path fill="#faa827" d="M26.93,22.79v.99a2.53815,2.53815,0,0,1-.39.24l-.53.27a1.14357,1.14357,0,0,1-1.02,0l-.53-.27a2.53815,2.53815,0,0,1-.39-.24v-.99Z"/><path fill="#58565d" d="M24.65676,15.00136a1.71833,1.71833,0,0,1-1.08195-.3831l-.932-.75542v4.55408h0l.91954-.916a.58327.58327,0,0,1,.53168-.15185,6.99015,6.99015,0,0,0,2.83511-.00482.56184.56184,0,0,1,.5087.15695l.91925.91576h0v-2.277a1.144,1.144,0,0,0-1.14286-1.13852H24.65676Z"/><path fill="#fdc475" d="M28.35985,18.41692l-.92-.91651a.56558.56558,0,0,0-.50857-.1537,7.201,7.201,0,0,1-1.42857.148,6.95424,6.95424,0,0,1-1.41143-.148.594.594,0,0,0-.53143.1537l-.91429.91651h-.00271l.29738,2.61977a2.84775,2.84775,0,0,0,1.52391,1.9876l.52476.26138a1.14675,1.14675,0,0,0,1.0222,0l.52476-.26138a2.84775,2.84775,0,0,0,1.52391-1.9876l.29738-2.61977"/><path fill="#00a653" d="M23,26.44v5.07H19.5V26.44a2.265,2.265,0,0,1,1.25-2.03,1.83281,1.83281,0,0,1,.46-.18l.04-.01.04.01a1.83281,1.83281,0,0,1,.46.18A2.265,2.265,0,0,1,23,26.44Z"/><path fill="#e5303e" d="M22,26.44v5.07H10V26.44a2.265,2.265,0,0,1,1.25-2.03,1.83281,1.83281,0,0,1,.46-.18l2.65-.69h3.28l2.65.69a1.83281,1.83281,0,0,1,.46.18A2.265,2.265,0,0,1,22,26.44Z"/><path fill="#b72732" d="M12.25,24.41a1.83281,1.83281,0,0,1,.46-.18l2.65-.69h-1l-2.65.69a1.83281,1.83281,0,0,0-.46.18A2.265,2.265,0,0,0,10,26.44v5.07h1V26.44A2.265,2.265,0,0,1,12.25,24.41Z"/><path fill="#fdc475" d="M17.43,22.79v1.47a1.43,1.43,0,0,1-2.86,0V22.79Z"/><path fill="#b72732" d="M13.36 28.8v2.71h-1V28.8a.47959.47959 0 0 1 .5-.5A.50142.50142 0 0 1 13.36 28.8zM19.64 28.8v2.71h-1V28.8a.50142.50142 0 0 1 .5-.5.47959.47959 0 0 1 .5.5z"/><path fill="#58565d" d="M15.15676,15.00136a1.71833,1.71833,0,0,1-1.08195-.3831l-.932-.75542v4.55408h0l.91954-.916a.58327.58327,0,0,1,.53168-.15185,6.99015,6.99015,0,0,0,2.83511-.00482.56184.56184,0,0,1,.5087.15695l.91925.91576h0v-2.277a1.144,1.144,0,0,0-1.14286-1.13852H15.15676Z"/><path fill="#faa827" d="M17.43,22.79v.99a2.53815,2.53815,0,0,1-.39.24l-.53.27a1.14357,1.14357,0,0,1-1.02,0l-.53-.27a2.53815,2.53815,0,0,1-.39-.24v-.99Z"/><path fill="#fdc475" d="M18.85985,18.41692l-.92-.91651a.56558.56558,0,0,0-.50857-.1537,7.201,7.201,0,0,1-1.42857.148,6.95424,6.95424,0,0,1-1.41143-.148.594.594,0,0,0-.53143.1537l-.91429.91651h-.00271l.29738,2.61977a2.84775,2.84775,0,0,0,1.52391,1.9876l.52476.26138a1.14675,1.14675,0,0,0,1.0222,0l.52476-.26138a2.84775,2.84775,0,0,0,1.52391-1.9876l.29738-2.61977"/><path fill="#3c3b41" d="M14.14288,16.13989V14.65637c-.02112-.01556-.04755-.02155-.06805-.03815l-.93195-.75537v4.55408l.91949-.91608a.52976.52976,0,0,1,.08051-.04669Z"/><path fill="#faa827" d="M16.48889,23.28564l-.52472-.26135a2.84778,2.84778,0,0,1-1.52393-1.98761l-.29736-2.61975h.00269l.91431-.91656a.57759.57759,0,0,1,.1134-.06525c-.18665-.02271-.37408-.04529-.582-.08844a.594.594,0,0,0-.53143.15369l-.91431.91656h-.00269l.29736,2.61975a2.84778,2.84778,0,0,0,1.52393,1.98761l.52472.26135a1.14569,1.14569,0,0,0,1.01111.004Z"/><path fill="#3c3b41" d="M23.64288,16.13989V14.65637c-.02112-.01556-.04755-.02155-.06805-.03815l-.93195-.75537v4.55408l.91949-.91608a.52976.52976,0,0,1,.08051-.04669Z"/><path fill="#faa827" d="M25.98889,23.28564l-.52472-.26135a2.84778,2.84778,0,0,1-1.52393-1.98761l-.29736-2.61975h.00269l.91431-.91656a.57759.57759,0,0,1,.1134-.06525c-.18665-.02271-.37408-.04529-.582-.08844a.594.594,0,0,0-.53143.15369l-.91431.91656h-.00269l.29736,2.61975a2.84778,2.84778,0,0,0,1.52393,1.98761l.52472.26135A1.14569,1.14569,0,0,0,26,23.28967Z"/></svg>