<svg xmlns="http://www.w3.org/2000/svg" viewBox="0 0 343.89 157.9"><defs><style>.cls-1{fill:#e8878b;}.cls-2{fill:#d6656d;}.cls-3{fill:#ffab2f;}.cls-4{fill:#fff;}.cls-11,.cls-14,.cls-17,.cls-18,.cls-23,.cls-24,.cls-5,.cls-9{fill:none;}.cls-24,.cls-5{stroke:#000;}.cls-11,.cls-14,.cls-17,.cls-18,.cls-23,.cls-24,.cls-5{stroke-miterlimit:10;}.cls-11,.cls-23,.cls-5,.cls-9{stroke-width:0.3px;}.cls-6{fill:#60b1f4;}.cls-7{fill:#c0e6ff;}.cls-8{fill:#eaf4ff;}.cls-9{stroke:#a50f21;stroke-linecap:round;stroke-linejoin:round;}.cls-10{fill:#4d36b2;}.cls-11,.cls-14{stroke:#b73d46;}.cls-12{fill:#070707;}.cls-13{fill:#5af;}.cls-14,.cls-17,.cls-18{stroke-width:0.5px;}.cls-15{fill:#429eea;}.cls-16{fill:#dd7a81;}.cls-17{stroke:#fff;}.cls-18{stroke:#f9eaec;}.cls-19{fill:#dfeaf4;}.cls-20{fill:#d5e4ef;}.cls-21{fill:#79c4bd;}.cls-22{fill:#346e94;}.cls-23{stroke:#5dabce;}</style></defs><g id="Layer_2" data-name="Layer 2"><g id="Layer_1-2" data-name="Layer 1"><path d="M67,19.12s6.25-12,19.28-1.83S96,43.09,96,43.09,94.4,54,106.65,53.78s23.46,1.82,22.68,13.29c0,.49-.09,1-.15,1.43-1.15,8.13-9,13.63-17.1,12.59l-3.58-.45a12.8,12.8,0,0,0-11.69,4.79l-3.91,5a12.81,12.81,0,0,1-16.44,3.2L40.46,73a12.69,12.69,0,0,1-5-17,23.61,23.61,0,0,1,7.57-8.13C55.31,39.44,51.66,29,51.66,29S50.1,13.38,67,19.12Z"/><path class="cls-1" d="M79,75.93l28.58,24.87c2.42,2.11,5.71,2.75,7.9.41h0a5.94,5.94,0,0,0-.33-8.47l-30.8-28Z"/><path class="cls-2" d="M100.64,79.55s-1.07,6.48-6.1,9.84l-4.18-3.63,7-9.23Z"/><path class="cls-1" d="M117.38,72.85,106,94.08,116.6,99.4l8-23.31a3.34,3.34,0,0,0-.06-2.25,5.49,5.49,0,0,0-1.62-2.38c-.84-.66-2.26-.53-3.35-.29A3.34,3.34,0,0,0,117.38,72.85Z"/><path class="cls-3" d="M80.82,55.74S85.41,57.56,99,77.58c0,0-1.86,9.42-10,12C89,89.53,79.61,84,76.1,78"/><path class="cls-4" d="M87.21,88.68C95.58,85,97.65,76.25,97.74,75.88l-.88-.2c0,.08-2.07,8.64-10,12.18Z"/><line class="cls-5" x1="109.5" y1="87.59" x2="110.12" y2="89.9"/><path class="cls-1" d="M128,74.69l-.59-10.17-4.94,1.63a13.53,13.53,0,0,0-.21-3.74.72.72,0,0,0-.92-.46l-.25.08a1.24,1.24,0,0,0-.7.59c-.72,1.37-1.44,2.73-2.65,4.67a4.14,4.14,0,0,0-.42,3.51l.32,1a6,6,0,0,0,7.59,3.82Z"/><rect class="cls-6" x="120.6" y="55.99" width="10.49" height="21.56" rx="1.61" transform="translate(34.8 -42.8) rotate(22.33)"/><rect class="cls-7" x="114.54" y="61.31" width="21.56" height="10.49" rx="1.26" transform="translate(16.14 157.19) rotate(-67.67)"/><rect class="cls-4" x="116.36" y="60.52" width="18.78" height="9.97" rx="1.04" transform="translate(17.38 156.94) rotate(-67.67)"/><path class="cls-8" d="M125.46,78.12h0Z"/><path class="cls-8" d="M133.55,58.43l.06.07Z"/><rect class="cls-7" x="133.44" y="60.23" width="0.35" height="1.47" rx="0.17" transform="translate(33.18 -46.19) rotate(22.33)"/><circle class="cls-6" cx="121.4" cy="75.25" r="0.86"/><rect class="cls-6" x="128.03" y="57.34" width="2.83" height="0.25" rx="0.13" transform="translate(31.54 -44.87) rotate(22.33)"/><rect class="cls-6" x="127.74" y="56.69" width="0.25" height="0.25" rx="0.13" transform="translate(31.17 -44.32) rotate(22.33)"/><path class="cls-1" d="M126.07,68h0a1.1,1.1,0,0,1,1.14-1l4.62.15a1.29,1.29,0,0,1,1.24,1.43h0a1.3,1.3,0,0,1-1.41,1.16l-4.6-.54A1.1,1.1,0,0,1,126.07,68Z"/><path class="cls-1" d="M126.3,70h0a1.06,1.06,0,0,1,1.11-.94l3.78.21a1.26,1.26,0,0,1,1.18,1.4h0a1.26,1.26,0,0,1-1.38,1.1l-3.75-.59A1.05,1.05,0,0,1,126.3,70Z"/><path class="cls-1" d="M126.16,71.87h0a1,1,0,0,1,1.08-.88l2.84.23a1.22,1.22,0,0,1,1.17,1.32h0a1.21,1.21,0,0,1-1.35,1L127.09,73A1,1,0,0,1,126.16,71.87Z"/><path class="cls-1" d="M125.84,73.3h0a1,1,0,0,1,1-.88l2.17.42a1.19,1.19,0,0,1,1.12,1.32h0a1.19,1.19,0,0,1-1.3,1l-2.15-.79A1,1,0,0,1,125.84,73.3Z"/><line class="cls-9" x1="132.11" y1="69.73" x2="126.89" y2="69.15"/><line class="cls-9" x1="130.99" y1="71.76" x2="126.97" y2="71.1"/><line class="cls-9" x1="129.9" y1="73.58" x2="126.33" y2="72.55"/><path class="cls-10" d="M50.56,157.28a16.9,16.9,0,0,0,2.83.44l2,.1c3.05,0,6.25-.32,9-.35,4.91,0,9.81-.16,14.71-.41a3.23,3.23,0,0,1,1.2.17,4.22,4.22,0,0,1,.64-.06,3.47,3.47,0,0,1,.83.11c.67-17.14-4.12-52.51-4.12-52.51s-24.5-32.58-36.23-5.21c-9.13,21.31-11.46,47.35-12,57.84,5.7.65,11.4-.09,17.13,0l1.9.05A2.92,2.92,0,0,1,50.56,157.28Z"/><path class="cls-3" d="M69.12,52.65s-24.76-1-27.89,5.73.26,41.18.26,41.18-1.37,4.25,19,7c17.2,2.34,17.2-1.83,17.2-1.83s11-18.5,9.91-33.62S78.5,54.73,78.5,54.73Z"/><path class="cls-1" d="M67.67,59.42h0A5.56,5.56,0,0,1,64,52L68.85,39.6a4.21,4.21,0,0,1,5-2.51h0a4.18,4.18,0,0,1,3,4.74L74.63,55A5.56,5.56,0,0,1,67.67,59.42Z"/><path class="cls-2" d="M75.1,52.29S67.33,50.13,68,41.84h8.9Z"/><path class="cls-5" d="M70.68,122.76c-3.14,3.33-5.14,6.33-9.14,7.33-1,9-1,17-2.6,26.38"/><path class="cls-1" d="M29.48,75.08,18.16,111.24c-1,3.05-.23,6.33,2.79,7.4h0a6,6,0,0,0,7.62-3.7l13.3-39.45Z"/><path class="cls-2" d="M35.69,93.52s-6.37,1.62-11.47-1.65l1.65-5.27,11.27,2.72Z"/><path class="cls-1" d="M45.43,101.06l-23.31,6,3.25,11.39,22.57-9.9A3.36,3.36,0,0,0,49.56,107a5.65,5.65,0,0,0,.66-2.8c-.09-1.07-1.14-2-2.06-2.67A3.3,3.3,0,0,0,45.43,101.06Z"/><path class="cls-3" d="M45.08,55.45S27.53,60.33,22.5,89c0,0,8.73,5.53,14.94,2,0,0,4.53-11,7.77-15.58"/><line class="cls-5" x1="41.4" y1="82.26" x2="45.21" y2="75.45"/><path class="cls-4" d="M35,90.13a24.37,24.37,0,0,0,3.13-.2L38,89a24.12,24.12,0,0,1-14.6-2.82L23,87A24.63,24.63,0,0,0,35,90.13Z"/><path class="cls-1" d="M48.34,99.91a3.54,3.54,0,0,0-2.6,1.53l-.5.72a5.13,5.13,0,0,0,1.32,7.13l2.06.66s7.6-3.34,5.55-3.42c-3.53-.13-4.46-1.73-4.46-1.73"/><path class="cls-1" d="M46.52,108.81s9.95-.54,8.09-1.42c-6.8-3.25-2.14-3.89-2.14-3.89a11.47,11.47,0,0,0,3.1-.76.62.62,0,0,0,.25-.85l-.11-.19a1,1,0,0,0-.6-.49c-1.27-.4-2.52-.78-4.34-1.5a3.57,3.57,0,0,0-3,.2l-.77.43a5.12,5.12,0,0,0-2,7Z"/><path class="cls-1" d="M59.74,105s-2.46,6.91-11.12,5L48,104.64l3.63,1a11.06,11.06,0,0,0,5.54,0Z"/><path class="cls-1" d="M62.1,102.1a.52.52,0,0,0-.61-.62,2.41,2.41,0,0,0-1.61,1.3c-1,1.7-1.5,3-3.77,3.86a49.78,49.78,0,0,1-4.82,1.55l2,1.21s3.65.09,6-1.77C61.06,106.2,61.84,103.34,62.1,102.1Z"/><path class="cls-1" d="M63.06,103a.52.52,0,0,0-.55-.67,2.44,2.44,0,0,0-1.73,1.15c-1.14,1.61-1.76,2.83-4.1,3.5a50.13,50.13,0,0,1-4.94,1.11l2,2s4-.49,6-1.86S62.69,104.2,63.06,103Z"/><line class="cls-5" x1="31.55" y1="104.64" x2="29.82" y2="106.34"/><path class="cls-1" d="M73,20.68S86.11,19,83.72,37.36C82.19,49.06,73.19,48,73.19,48S66.51,49,63.13,35.38,73,20.68,73,20.68Z"/><circle class="cls-1" cx="63.6" cy="36.8" r="3.61"/><path class="cls-11" d="M75.15,34.84s1.29,3.41,1.9,3.91-1.14.76-1.14.76"/><path class="cls-11" d="M75.67,42.68a4.74,4.74,0,0,0,3.93-1"/><circle class="cls-12" cx="80.22" cy="33.18" r="0.8"/><path class="cls-12" d="M78.12,32.62l-.37-.27a3.7,3.7,0,0,1,4.44-1.24l-.18.41A3.18,3.18,0,0,0,78.12,32.62Z"/><circle class="cls-12" cx="71.27" cy="35.69" r="0.8"/><path class="cls-12" d="M69.17,35.13l-.37-.27a3.71,3.71,0,0,1,4.45-1.24l-.19.41A3.19,3.19,0,0,0,69.17,35.13Z"/><path d="M71.27,25.59a9.89,9.89,0,0,0,8.33,2.17c3-.53,4.22,3.06,4.22,3.06L83.9,18,61.3,21.68V32.62l1.27.56A9.29,9.29,0,0,1,71.27,25.59Z"/><path d="M64.51,29s-2.69,2.74,0,5c1.88,1.58.45,9.19-.51,10.25,0,0,2.29-7,0-9.09l-2.7-2.51S59.86,26.3,64.51,29Z"/><path class="cls-13" d="M182.59,92.2l-16.66-4.85a12.49,12.49,0,0,0-7.46.16L142,93.08a12.43,12.43,0,0,0-8.29,13.76L141,157.4c0,.11,0,.21.07.32h.09c3,0,5.94-.25,8.9-.2,2.43,0,4.93.57,7.33,0a3.14,3.14,0,0,1,1.39,0,2.9,2.9,0,0,1,.95-.07c4.62.4,9.32-.26,14-.2,2.42,0,5,.38,7.53.59a3.07,3.07,0,0,1,1.53-.39,3.23,3.23,0,0,1,.85.12,3,3,0,0,1,1.24.27,3.36,3.36,0,0,1,1.28-.1,10.19,10.19,0,0,0,.26-1.27l5.08-50.82A12.44,12.44,0,0,0,182.59,92.2Z"/><path class="cls-1" d="M161.88,97.92h0A7.31,7.31,0,0,1,154.44,90l1.41-17.52a5.5,5.5,0,0,1,5.37-5.06h0a5.5,5.5,0,0,1,5.59,4.83L169,89.72A7.31,7.31,0,0,1,161.88,97.92Z"/><path class="cls-2" d="M168.49,85.86s-10,1.65-12.9-6.19l11.86-2.21Z"/><rect class="cls-1" x="149.35" y="47.11" width="23.43" height="33.98" rx="11.71" transform="matrix(1, -0.02, 0.02, 1, -1.35, 3.51)"/><path class="cls-12" d="M160.69,46.91c-14.59.32-11.38,15.73-11.38,15.73l.09,3.89h.41l.95-5.67a6.17,6.17,0,0,1,.68-2.22L153,55.75a4.39,4.39,0,0,1,5.87-1.85h0a4.41,4.41,0,0,0,4,0l.34-.18a4.39,4.39,0,0,1,5.9,1.79L170.47,58a6.13,6.13,0,0,1,.68,2L172.41,66h.41l-.08-3.89S175.64,46.59,160.69,46.91Z"/><path class="cls-1" d="M172.87,68.56c1.58,0,2.82-2.15,2.78-3.82s-1.33-2.26-2.91-2.23Z"/><path class="cls-14" d="M174.39,64.43a2.53,2.53,0,0,0-.93,2.2,1.5,1.5,0,0,1,1-.28"/><path class="cls-1" d="M149.45,69.07c-1.58,0-2.9-2-2.94-3.7s1.23-2.31,2.81-2.35Z"/><path class="cls-14" d="M147.83,65a2.54,2.54,0,0,1,1,2.16,1.52,1.52,0,0,0-1-.23"/><line class="cls-5" x1="138.15" y1="135.91" x2="139.35" y2="115.16"/><path class="cls-15" d="M190.89,132.62s-17.59,2.12-19.53,3-2.74-7.27-15.59-.14c0,0-18.28-1.71-18.62-.7s2.08,13,2.08,13l44-9.15Z"/><path class="cls-15" d="M186.4,156.41s-18.49-.26-23.18-2.19S141,157.4,141,157.4L139.8,150l27.07-6.11,19.7,9.54Z"/><path class="cls-1" d="M146.11,135.32s-5.25-.27-9.05,1.61.16,7.45.16,7.45l6.9-.35L165.63,148l1.72-8.85Z"/><path class="cls-16" d="M153.15,136.58s-3.76,4.76-1.32,8.89l1.36.19,2.61-8.61Z"/><path class="cls-13" d="M190.61,155.86l-36.19-7.75a1.86,1.86,0,0,1-1.4-1.27c-1.54-5.14,1.93-9.51,3.55-11.2a1.86,1.86,0,0,1,1.75-.53l30.46,6.49-2.66-27.45-3.64-22c16.66,4.84,16.1,15.63,16.1,15.63l4.88,42.84a5.81,5.81,0,0,1-6.89,6.36Z"/><path class="cls-15" d="M188.78,141.72l-15,3.49-10.17,4.86,3.63.77,19.05-5.19a3.48,3.48,0,0,0,2.55-3.7Z"/><path class="cls-1" d="M188.78,141.72l-.65-6.79a20,20,0,0,0-7.76-.35l-21.06,4.71,2.11,8.77,21.32-4.87h0Z"/><path class="cls-16" d="M173.39,136.14s4,4.6,1.7,8.83l-1.35.24-3-8.48Z"/><path class="cls-13" d="M169.66,135.36a1.86,1.86,0,0,0-1.77-.46l-30.15,7.81,1.47-27.54,2.68-22.09c-16.43,5.56-15.41,16.32-15.41,16.32l-3,43a5.77,5.77,0,0,0,2.68,5.3,23.63,23.63,0,0,1,8.22-.16l2.16-.52,35.82-9.31a1.86,1.86,0,0,0,1.34-1.33C175,141.18,171.35,137,169.66,135.36Z"/><line class="cls-5" x1="188.63" y1="134.81" x2="186.74" y2="116.21"/><path class="cls-14" d="M160.81,66.32s-.42,4.78-1,5.62,1.72.57,1.72.57"/><path class="cls-14" d="M159.6,75.9a6.27,6.27,0,0,0,5.22-1.16"/><path class="cls-5" d="M188.78,141.72s1.92,2.13,1.94,3.12"/><path class="cls-5" d="M137.74,142.71a3.75,3.75,0,0,0-1.89,2.64"/><line class="cls-5" x1="163.13" y1="136.13" x2="155.82" y2="138.03"/><circle class="cls-12" cx="167.17" cy="65.6" r="1.03"/><path class="cls-12" d="M164.71,64.22l-.37-.45a4.79,4.79,0,0,1,6-.12l-.37.45A4.12,4.12,0,0,0,164.71,64.22Z"/><circle class="cls-12" cx="155.17" cy="65.86" r="1.03"/><path class="cls-12" d="M152.72,64.48l-.37-.45a4.77,4.77,0,0,1,6-.12l-.36.45A4.13,4.13,0,0,0,152.72,64.48Z"/><path class="cls-12" d="M174,44.3s6.68,13-1.3,14.27c0,0-8.66-4.51-17.46-2.43,0,0-3.07.26-3.76,2.49l-.11-5,9.36-6.5s1.7-3.87.92-4.62Z"/><path class="cls-17" d="M171.79,47.65s2.13,6.05-1.66,6.42"/><circle class="cls-18" cx="155.17" cy="65.83" r="5.16"/><circle class="cls-18" cx="167.17" cy="65.83" r="5.16"/><line class="cls-18" x1="160.33" y1="65.83" x2="162.01" y2="65.83"/><rect class="cls-19" x="137.27" y="118.4" width="54.54" height="35.71" rx="0.97"/><rect class="cls-20" x="137.27" y="154.11" width="54.54" height="2.63" rx="1.16"/><circle class="cls-20" cx="164.54" cy="134.92" r="5.59"/><path class="cls-21" d="M237.49,71.75l-15.4,9.43a12.94,12.94,0,0,0-5.24,15.87l19,49.62a9.71,9.71,0,0,0,9,6.08h2.42a58.2,58.2,0,0,0,27.1-6.78l2.15-1.13a9.71,9.71,0,0,0,5.11-9.61l-6.55-52.74A13,13,0,0,0,263,70.94l-17.45,1.18C242.94,72,239.75,70.36,237.49,71.75Z"/><path class="cls-22" d="M281.87,135.91s-14.56,6.13-46,10.76l1.63,10.78a3.31,3.31,0,0,1,.64-.06c.12,0,.22,0,.33,0s.21,0,.32,0a3.08,3.08,0,0,1,1.26.25,2.23,2.23,0,0,1,.27,0c.95,0,1.91,0,2.87,0a3,3,0,0,1,1.36-.3l.25,0a3,3,0,0,1,1.16-.13c3.55.27,7.08.6,10.64.65a1,1,0,0,1,.18,0,3.19,3.19,0,0,1,1.24-.24,3,3,0,0,1,1.35.29h0a2.89,2.89,0,0,1,1.86-.62,3,3,0,0,1,1.68.48,3.09,3.09,0,0,1,3.56,0,3,3,0,0,1,1.39-.32,2.93,2.93,0,0,1,1.7.5,9,9,0,0,1,1.64,0,3.07,3.07,0,0,1,1.33-.28,3.55,3.55,0,0,1,.67.06,2.9,2.9,0,0,1,1.5-.39,3.14,3.14,0,0,1,1.28.27,3.45,3.45,0,0,1,.57-.05,3.24,3.24,0,0,1,1.12.2c.77-.15,1.55-.31,2.35-.51.18,0,7.95.44,8.13.41Z"/><path class="cls-23" d="M243,145.57c1.65,2.49,2.89,5.74,2.23,8.75"/><path class="cls-1" d="M243.35,81.52h0A7.61,7.61,0,0,1,234,75.23l-2.61-18.1a5.74,5.74,0,0,1,4.29-6.38h0a5.74,5.74,0,0,1,6.78,3.62l6.21,17.2A7.6,7.6,0,0,1,243.35,81.52Z"/><path class="cls-2" d="M247.37,68s-10.7,2.67-15.53-7.63l10.6-6Z"/><rect class="cls-1" x="221.62" y="25.66" width="24.38" height="35.35" rx="12.19" transform="translate(-3.53 57.97) rotate(-14.03)"/><path class="cls-12" d="M229.18,24.81c-14.73,3.68-7.63,19.75-7.63,19.75l1,3.93.42-.11-.35-6a6.33,6.33,0,0,1,.19-2.41l.88-3.27a4.58,4.58,0,0,1,5.53-3.23h0a4.59,4.59,0,0,0,4.09-1l.3-.26a4.57,4.57,0,0,1,6.4.46L241.94,35a6.38,6.38,0,0,1,1.15,1.88l2.67,5.85.42-.1-1-3.93S244.27,21,229.18,24.81Z"/><path class="cls-1" d="M246.82,45.14c1.59-.4,2.36-2.83,1.94-4.51s-1.87-2-3.47-1.59Z"/><path class="cls-11" d="M247.41,40.6a2.63,2.63,0,0,0-.44,2.45,1.52,1.52,0,0,1,.93-.5"/><path class="cls-1" d="M223.17,51.05c-1.59.4-3.41-1.39-3.84-3.07s.72-2.63,2.31-3Z"/><path class="cls-11" d="M220.59,47.3a2.64,2.64,0,0,1,1.55,2,1.52,1.52,0,0,0-1.06,0"/><path class="cls-21" d="M213.52,157.19l-3.3-55.91s-3.52-10.67,11.87-20.1l2.37,23,1.83,53Z"/><line class="cls-5" x1="225.33" y1="119.18" x2="224.46" y2="104.21"/><path class="cls-11" d="M233.6,43.62s.68,4.94.26,5.94,1.88.17,1.88.17"/><path class="cls-4" d="M233.31,54.51a14.13,14.13,0,0,0,5.83-1.46S238.25,57.84,233.31,54.51Z"/><line class="cls-5" x1="275.62" y1="86.35" x2="271.65" y2="88.15"/><path class="cls-1" d="M321.31,52.09l13.32-30.37c-3.09-5.88-9.58-3.21-9.58-3.21l-13.79,29.1c-.07.18-.15.35-.23.53A90.32,90.32,0,0,1,321.31,52.09Z"/><path class="cls-1" d="M329.43,22.07a5.56,5.56,0,0,1-4.78-6.18l.22-8.69A1.29,1.29,0,0,1,326.37,6h0a1.31,1.31,0,0,1,1,1l1,4.37L333,1.08A1.34,1.34,0,0,1,334.8.15h0a1.4,1.4,0,0,1,.64,1.64l-2.69,6.83.54.36,4.39-7.7A1.34,1.34,0,0,1,339.74,1h0A1.34,1.34,0,0,1,340,2.69l-4.24,8,.38.38,4.09-5.77c1.07-1.59,1.84-1.45,2.3-.94s.45,1-.57,2.59l-4,6.05.28.3,3.93-4.87a1,1,0,0,1,1.72-.06h0c.22.39-.11,1.06-.46,1.59l-4.18,5.73s-3.41,7.44-7.27,7Z"/><path class="cls-11" d="M328.45,11.35s3.76,2,3.45,6.08"/><polygon class="cls-2" points="319.51 30.2 329.42 33.59 328.45 35.8 318.44 32.46 319.51 30.2"/><path class="cls-21" d="M300.93,57.18,260.46,71.12c-11.66,24,15.15,15.16,15.15,15.16L311.2,70.83a8,8,0,0,0,3.85-3.53l16.66-30.82-15-6.28L303.15,55.29A4,4,0,0,1,300.93,57.18Z"/><circle class="cls-12" cx="239.12" cy="42.19" r="1.03"/><path class="cls-12" d="M236.45,41.31l-.45-.37a4.77,4.77,0,0,1,5.82-1.27l-.27.51A4.12,4.12,0,0,0,236.45,41.31Z"/><circle class="cls-12" cx="227.41" cy="44.77" r="1.03"/><path class="cls-12" d="M224.73,43.89l-.45-.36a4.76,4.76,0,0,1,5.82-1.28l-.27.52A4.11,4.11,0,0,0,224.73,43.89Z"/><line class="cls-24" y1="157.24" x2="313.74" y2="157.24"/></g></g></svg>