<?xml version="1.0" encoding="iso-8859-1"?>
<!-- Generator: Adobe Illustrator 21.0.0, SVG Export Plug-In . SVG Version: 6.00 Build 0)  -->
<svg version="1.1" id="Capa_1" xmlns="http://www.w3.org/2000/svg" xmlns:xlink="http://www.w3.org/1999/xlink" x="0px" y="0px"
	 viewBox="0 0 512 512" style="enable-background:new 0 0 512 512;" xml:space="preserve">
<g id="XMLID_770_">
	<g id="XMLID_771_">
		<g id="XMLID_772_">
			<g id="XMLID_773_">
				<path id="XMLID_774_" style="fill:#EB5777;" d="M512,372.503v73.555c0,5.69-4.612,10.302-10.302,10.302H322.241v-83.857
					c0-24.846,20.142-44.988,44.988-44.988h99.783C491.858,327.515,512,347.657,512,372.503z"/>
				<path id="XMLID_775_" style="fill:#CE3F63;" d="M393.313,374.347v82.013h-71.072v-83.857c0-24.848,20.14-44.988,44.988-44.988
					h8.612C386.73,340.083,393.313,356.463,393.313,374.347z"/>
				<g id="XMLID_776_">
					<path style="fill:#E39F6E;" d="M418.196,352.845L418.196,352.845c-8.47,0-15.336-6.866-15.336-15.336v-43.02h30.672v43.02
						C433.532,345.979,426.666,352.845,418.196,352.845z"/>
					<path style="fill:#BA6F3C;" d="M337.062,234.497H499.33l4.28-20.875c11.084-54.067-30.222-104.699-85.413-104.699h0
						c-55.192,0-96.497,50.632-85.413,104.699L337.062,234.497z"/>
					<g id="XMLID_777_">
						<g id="XMLID_778_">
							<circle style="fill:#E39F6E;" cx="487.732" cy="242.668" r="20.648"/>
						</g>
						<g id="XMLID_779_">
							<path id="XMLID_780_" style="fill:#E39F6E;" d="M369.305,242.67c0,11.401-9.237,20.649-20.649,20.649
								c-11.401,0-20.649-9.248-20.649-20.649c0-1.742,0.211-3.441,0.633-5.057c2.249-8.952,10.356-15.592,20.016-15.592
								c9.786,0,17.978,6.809,20.1,15.941C369.115,239.471,369.305,241.055,369.305,242.67z"/>
							<path id="XMLID_781_" style="fill:#D88852;" d="M368.756,237.962c-5.827,3.347-12.573,5.257-19.762,5.257
								c-7.432,0-14.389-2.048-20.353-5.606c2.249-8.952,10.356-15.592,20.016-15.592
								C358.442,222.021,366.634,228.83,368.756,237.962z"/>
						</g>
					</g>
					<path id="XMLID_782_" style="fill:#F8C298;" d="M353.209,184.918l7.081,56.665l2.681,21.494
						c3.484,27.849,27.162,48.751,55.222,48.751c28.07,0,51.749-20.902,55.222-48.751l9.762-78.159H353.209z"/>
					<path id="XMLID_783_" style="fill:#E39F6E;" d="M388.856,203.357c0,18.063-12.077,33.349-28.566,38.226l-7.59-60.743h29.179
						C386.28,187.258,388.856,195.007,388.856,203.357z"/>
					<g id="XMLID_784_">
						<path id="XMLID_785_" style="fill:#AA5B26;" d="M387.968,249.212c-4.17,0-7.605-3.321-7.719-7.515l-0.09-3.273
							c-0.117-4.266,3.246-7.818,7.512-7.935c4.27-0.132,7.818,3.246,7.935,7.512l0.09,3.273c0.117,4.266-3.246,7.818-7.512,7.935
							C388.111,249.211,388.039,249.212,387.968,249.212z"/>
						<path id="XMLID_786_" style="fill:#AA5B26;" d="M448.506,249.212c-4.169,0-7.605-3.321-7.719-7.515l-0.09-3.273
							c-0.117-4.266,3.246-7.818,7.512-7.935c4.27-0.132,7.818,3.246,7.935,7.512l0.09,3.273c0.117,4.266-3.246,7.818-7.512,7.935
							C448.649,249.211,448.577,249.212,448.506,249.212z"/>
					</g>
					<path id="XMLID_787_" style="fill:#E39F6E;" d="M418.196,278.219c-9.726,0-18.944-4.711-24.658-12.603
						c-2.503-3.456-1.729-8.287,1.726-10.79c3.458-2.502,8.287-1.728,10.79,1.726c2.817,3.891,7.356,6.213,12.142,6.213
						s9.326-2.322,12.143-6.213c2.503-3.456,7.333-4.228,10.79-1.726c3.456,2.503,4.229,7.334,1.726,10.79
						C437.14,273.508,427.922,278.219,418.196,278.219z"/>
				</g>
				<g id="XMLID_788_">
					<path id="XMLID_789_" d="M358.885,464.086c-4.267,0-7.726-3.459-7.726-7.726v-70.233c0-4.267,3.459-7.726,7.726-7.726
						c4.267,0,7.726,3.459,7.726,7.726v70.233C366.612,460.626,363.152,464.086,358.885,464.086z"/>
					<path id="XMLID_790_" style="fill:#CE3F63;" d="M483.073,386.122v70.238H467.62v-70.238c0-4.265,3.461-7.726,7.726-7.726
						C479.621,378.396,483.073,381.857,483.073,386.122z"/>
				</g>
			</g>
			<path id="XMLID_791_" style="fill:#BA6F3C;" d="M341.065,186.523c0,0,13.855,13.743,51.164,14.736
				c2.359,0.063,4.296-1.836,4.296-4.195v-5.535c0,0,13.564,8.901,42.309,9.726c2.36,0.068,4.296-1.834,4.296-4.195v-3.14
				c0,0,11.178,6.823,44.684,7.362c2.337,0.038,4.251-1.858,4.251-4.195l0-20.371c0-2.667-2.162-4.828-4.828-4.828H355.701
				C347.618,171.888,341.065,178.44,341.065,186.523L341.065,186.523z"/>
			<path id="XMLID_792_" style="fill:#AA5B26;" d="M392.301,208.986c-0.106,0-0.211-0.002-0.317-0.005
				c-24.301-0.652-39.6-6.457-48.155-11.211c-3.73-2.073-5.073-6.777-3-10.507c2.074-3.729,6.777-5.071,10.507-3
				c5.45,3.029,17.361,8.077,37.462,9.129v-1.864c0-2.84,1.557-5.45,4.056-6.799c2.499-1.35,5.536-1.218,7.909,0.339
				c0.063,0.039,11.352,7,34.657,8.309c0.169-2.646,1.579-5.096,3.933-6.355c2.49-1.331,5.376-1.281,7.735,0.258
				c0.923,0.474,11.226,5.446,37.866,6.209c4.265,0.122,7.624,3.679,7.502,7.945c-0.123,4.265-3.685,7.618-7.945,7.502
				c-17.456-0.5-28.953-2.704-36.027-4.741c-0.373,0.496-0.788,0.967-1.242,1.409c-2.302,2.236-5.465,3.458-8.67,3.372
				c-16.254-0.471-28.135-3.434-35.791-6.166c-0.561,1.016-1.276,1.954-2.133,2.788C398.427,207.762,395.4,208.986,392.301,208.986z
				"/>
		</g>
		<g id="XMLID_793_">
			<g id="XMLID_794_">
				<path id="XMLID_795_" style="fill:#4FCEB7;" d="M189.759,372.503v83.857H10.302C4.612,456.36,0,451.748,0,446.058v-73.555
					c0-24.846,20.142-44.988,44.988-44.988h99.783C169.618,327.515,189.759,347.657,189.759,372.503z"/>
				<path id="XMLID_796_" style="fill:#3DB4A0;" d="M189.759,372.503v83.857h-71.072v-82.013c0-17.884,6.583-34.264,17.472-46.832
					h8.612C169.619,327.515,189.759,347.655,189.759,372.503z"/>
				<g id="XMLID_798_">
					<path style="fill:#E39F6E;" d="M95.96,352.845L95.96,352.845c-8.47,0-15.336-6.866-15.336-15.336v-43.02h30.672v43.02
						C111.296,345.979,104.43,352.845,95.96,352.845z"/>
					<path style="fill:#BA6F3C;" d="M14.826,234.497h162.268l4.28-20.875c11.084-54.067-30.222-104.699-85.413-104.699h0
						c-55.192,0-96.497,50.632-85.413,104.699L14.826,234.497z"/>
					<g id="XMLID_810_">
						<g id="XMLID_811_">
							<path id="XMLID_812_" style="fill:#E39F6E;" d="M186.146,242.67c0,11.401-9.248,20.649-20.649,20.649
								s-20.649-9.248-20.649-20.649c0-1.742,0.211-3.441,0.633-5.057c2.249-8.952,10.356-15.592,20.016-15.592
								c9.786,0,17.989,6.809,20.1,15.951C185.956,239.482,186.146,241.055,186.146,242.67z"/>
							<path id="XMLID_813_" style="fill:#D88852;" d="M185.597,237.972c-5.827,3.336-12.573,5.247-19.752,5.247
								c-7.432,0-14.399-2.048-20.364-5.606c2.249-8.952,10.356-15.592,20.016-15.592
								C175.284,222.021,183.486,228.83,185.597,237.972z"/>
						</g>
						<g id="XMLID_814_">
							<circle style="fill:#E39F6E;" cx="26.424" cy="242.668" r="20.648"/>
						</g>
					</g>
					<path id="XMLID_815_" style="fill:#F8C298;" d="M30.976,184.918l9.762,78.159c3.484,27.849,27.152,48.751,55.222,48.751
						c28.07,0,51.738-20.902,55.222-48.751l2.713-21.684l7.05-56.475H30.976z"/>
					<path id="XMLID_816_" style="fill:#E39F6E;" d="M130.522,184.918c-2.893,5.52-4.539,11.788-4.539,18.44
						c0,17.82,11.75,32.947,27.912,38.036l7.05-56.475H130.522z"/>
					<g id="XMLID_817_">
						<path id="XMLID_818_" style="fill:#AA5B26;" d="M65.732,249.212c-4.17,0-7.605-3.321-7.719-7.515l-0.09-3.273
							c-0.117-4.266,3.246-7.818,7.512-7.935c4.283-0.132,7.818,3.246,7.935,7.512l0.09,3.273c0.117,4.266-3.246,7.818-7.512,7.935
							C65.875,249.211,65.803,249.212,65.732,249.212z"/>
						<path id="XMLID_819_" style="fill:#AA5B26;" d="M126.27,249.212c-4.17,0-7.605-3.321-7.719-7.515l-0.09-3.273
							c-0.117-4.266,3.246-7.818,7.512-7.935c4.284-0.132,7.818,3.246,7.935,7.512l0.09,3.273c0.117,4.266-3.246,7.818-7.512,7.935
							C126.413,249.211,126.341,249.212,126.27,249.212z"/>
					</g>
					<path id="XMLID_820_" style="fill:#E39F6E;" d="M95.96,278.219c-9.726,0-18.945-4.711-24.659-12.603
						c-2.503-3.456-1.729-8.287,1.726-10.79c3.458-2.502,8.287-1.728,10.79,1.726c2.817,3.891,7.357,6.213,12.143,6.213
						s9.325-2.322,12.142-6.213c2.503-3.456,7.332-4.228,10.79-1.726c3.456,2.503,4.229,7.334,1.726,10.79
						C114.904,273.508,105.686,278.219,95.96,278.219z"/>
				</g>
				<g id="XMLID_821_">
					<path id="XMLID_822_" style="fill:#3DB4A0;" d="M44.38,386.122v70.238H28.928v-70.238c0-4.265,3.451-7.726,7.726-7.726
						C40.919,378.396,44.38,381.857,44.38,386.122z"/>
					<path id="XMLID_823_" d="M153.115,464.086c-4.267,0-7.726-3.459-7.726-7.726v-70.233c0-4.267,3.459-7.726,7.726-7.726
						s7.726,3.459,7.726,7.726v70.233C160.841,460.626,157.382,464.086,153.115,464.086z"/>
				</g>
			</g>
			<path id="XMLID_824_" style="fill:#BA6F3C;" d="M18.83,186.523c0,0,13.855,13.743,51.164,14.736
				c2.359,0.063,4.296-1.836,4.296-4.195l0-5.535c0,0,13.564,8.901,42.309,9.726c2.36,0.068,4.296-1.834,4.296-4.195l0-3.14
				c0,0,11.178,6.823,44.684,7.362c2.337,0.038,4.251-1.858,4.251-4.195l0-20.371c0-2.667-2.162-4.828-4.828-4.828H33.465
				C25.382,171.888,18.83,178.44,18.83,186.523L18.83,186.523z"/>
			<path id="XMLID_825_" style="fill:#AA5B26;" d="M165.556,209.008c-0.043,0-0.085-0.001-0.128-0.001
				c-19.24-0.311-31.691-2.653-39.18-4.81c-0.373,0.495-0.787,0.966-1.241,1.407c-2.301,2.235-5.463,3.462-8.67,3.372
				c-16.255-0.471-28.136-3.434-35.792-6.166c-0.561,1.016-1.276,1.954-2.133,2.789c-2.297,2.236-5.463,3.477-8.663,3.382
				c-21.635-0.58-35.997-5.327-44.235-9.207c-3.861-1.818-5.516-6.421-3.698-10.282c1.817-3.861,6.423-5.515,10.282-3.698
				c6.454,3.039,17.548,6.718,34.466,7.598v-1.864c0-2.84,1.557-5.45,4.056-6.799c2.498-1.35,5.536-1.218,7.909,0.339
				c0.063,0.039,11.352,7,34.657,8.309c0.17-2.646,1.579-5.096,3.933-6.355c2.489-1.332,5.376-1.281,7.734,0.258
				c0.956,0.49,11.982,5.808,40.827,6.276c4.267,0.069,7.669,3.584,7.6,7.851C173.21,205.631,169.765,209.008,165.556,209.008z"/>
		</g>
	</g>
	<g id="XMLID_826_">
		<g id="XMLID_827_">
			<g id="XMLID_828_">
				<path id="XMLID_829_" style="fill:#A9D2F7;" d="M380.951,374.347v100.123c0,5.69-4.612,10.302-10.302,10.302H141.351
					c-5.69,0-10.302-4.612-10.302-10.302V374.347c0-32.729,26.527-59.256,59.246-59.256h131.41
					C354.424,315.091,380.951,341.618,380.951,374.347z"/>
				<g id="XMLID_830_">
					<path id="XMLID_831_" style="fill:#5F9EEB;" d="M179.312,347.156v15.885c0,3.687,2.989,6.676,6.676,6.676h0
						c4.447,0,7.651,4.267,6.411,8.538l-5.37,18.488c-0.584,2.01-0.191,4.177,1.061,5.855l25.245,33.827V315.093l-31.675,26.982
						C180.17,343.342,179.312,345.2,179.312,347.156z"/>
				</g>
				<g id="XMLID_832_">
					<path style="fill:#5F9EEB;" d="M335.527,347.156v15.885c0,3.687-2.989,6.676-6.676,6.676h0c-4.447,0-7.651,4.267-6.411,8.538
						l5.37,18.488c0.584,2.01,0.191,4.177-1.061,5.855l-25.245,33.827V315.093l31.675,26.982
						C334.669,343.342,335.527,345.2,335.527,347.156z"/>
				</g>
				<rect x="213.333" y="315.091" style="fill:#627687;" width="88.173" height="169.685"/>
				<path style="fill:#7FB7EA;" d="M380.95,374.334v100.137c0,5.69-4.612,10.302-10.302,10.302h-9.888V374.345
					c0-32.719-26.535-59.254-59.254-59.254h20.2C354.426,315.091,380.95,341.615,380.95,374.334z"/>
				<g id="XMLID_833_">
					<path style="fill:#F8C298;" d="M257.42,348.455L257.42,348.455c-11.154,0-20.196-9.042-20.196-20.196v-56.655h40.393v56.655
						C277.616,339.413,268.574,348.455,257.42,348.455z"/>
					<path style="fill:#FFCF64;" d="M150.572,192.598h213.695l5.636-27.492C384.5,93.904,330.103,27.225,257.42,27.225h0
						c-72.684,0-127.08,66.679-112.483,137.882L150.572,192.598z"/>
					<path id="XMLID_834_" style="fill:#EFC40F;" d="M359,127.219c-4.267,0-7.726,3.459-7.726,7.726v16.578
						c-6.04-0.106-15.042-0.608-25.393-2.297v15.617c11.122,1.673,20.587,2.099,26.667,2.15c0.042,0.001,0.083,0.001,0.124,0.001
						c3.732,0,7.242-1.444,9.895-4.074c2.683-2.66,4.16-6.207,4.16-9.987v-17.988C366.727,130.678,363.268,127.219,359,127.219z"/>
					<path style="fill:#EFC40F;" d="M157.131,127.219c4.267,0,7.726,3.459,7.726,7.726v16.578c6.04-0.106,15.042-0.608,25.393-2.297
						v15.617c-11.122,1.673-20.587,2.099-26.667,2.15c-0.042,0.001-0.083,0.001-0.124,0.001c-3.732,0-7.242-1.444-9.895-4.074
						c-2.683-2.66-4.16-6.207-4.16-9.987v-17.988C149.405,130.678,152.864,127.219,157.131,127.219z"/>
					<g id="XMLID_835_">
						<g id="XMLID_836_">
							<circle style="fill:#F8C298;" cx="348.994" cy="203.359" r="27.192"/>
						</g>
						<g id="XMLID_837_">
							<circle style="fill:#F8C298;" cx="165.845" cy="203.359" r="27.192"/>
						</g>
					</g>
					<path id="XMLID_838_" style="fill:#FFD6C0;" d="M176.301,163.01l8.396,67.22c4.581,36.678,35.759,64.204,72.722,64.204h0
						c36.963,0,68.141-27.526,72.722-64.204l8.396-67.22c2.51-20.095-13.159-37.843-33.41-37.843h-95.417
						C189.46,125.167,173.791,142.915,176.301,163.01z"/>
					<g id="XMLID_839_">
						<path id="XMLID_840_" style="fill:#4FCEB7;" d="M217.613,209.528c-4.169,0-7.605-3.321-7.719-7.515l-0.118-4.31
							c-0.117-4.266,3.246-7.818,7.512-7.935c4.236-0.124,7.818,3.246,7.935,7.512l0.118,4.31c0.117,4.266-3.246,7.818-7.512,7.935
							C217.757,209.527,217.685,209.528,217.613,209.528z"/>
						<path id="XMLID_841_" style="fill:#4FCEB7;" d="M297.337,209.528c-4.169,0-7.605-3.321-7.719-7.515l-0.118-4.31
							c-0.117-4.266,3.246-7.818,7.512-7.935c4.23-0.124,7.818,3.246,7.935,7.512l0.118,4.31c0.117,4.266-3.246,7.818-7.512,7.935
							C297.48,209.527,297.408,209.528,297.337,209.528z"/>
					</g>
					<path id="XMLID_842_" style="fill:#F8C298;" d="M257.42,247.728c-12.026,0-23.424-5.826-30.49-15.585
						c-2.503-3.456-1.729-8.287,1.727-10.789c3.457-2.502,8.287-1.729,10.789,1.727c4.169,5.758,10.888,9.195,17.974,9.195
						c7.087,0,13.806-3.437,17.974-9.195c2.502-3.457,7.333-4.23,10.789-1.727c3.456,2.503,4.229,7.333,1.727,10.789
						C280.845,241.902,269.446,247.728,257.42,247.728z"/>
				</g>
				<g id="XMLID_843_">
					<path id="XMLID_844_" style="fill:#7FB7EA;" d="M187.04,423.672v61.1h-15.453v-61.1c0-4.265,3.461-7.726,7.726-7.726
						C183.578,415.946,187.04,419.407,187.04,423.672z"/>
					<path id="XMLID_845_" style="fill:#7FB7EA;" d="M340.413,423.672v61.1H324.96v-61.1c0-4.265,3.461-7.726,7.726-7.726
						C336.952,415.946,340.413,419.407,340.413,423.672z"/>
				</g>
			</g>
		</g>
		<path id="XMLID_846_" style="fill:#FFCF64;" d="M164.869,113.659l0,36.401c0,3.522,2.865,6.365,6.387,6.335
			c16.585-0.142,56.632-3.033,86.816-25.812c30.184,22.778,70.231,25.67,86.816,25.812c3.521,0.03,6.387-2.813,6.387-6.335l0-36.401
			H164.869z"/>
	</g>
</g>
<g>
</g>
<g>
</g>
<g>
</g>
<g>
</g>
<g>
</g>
<g>
</g>
<g>
</g>
<g>
</g>
<g>
</g>
<g>
</g>
<g>
</g>
<g>
</g>
<g>
</g>
<g>
</g>
<g>
</g>
</svg>
