<?xml version="1.0" encoding="utf-8"?><svg version="1.1" id="Layer_1" xmlns="http://www.w3.org/2000/svg" xmlns:xlink="http://www.w3.org/1999/xlink" x="0px" y="0px" viewBox="0 0 122.88 113.03" style="enable-background:new 0 0 122.88 113.03" xml:space="preserve"><style type="text/css"><![CDATA[
	.st0{fill-rule:evenodd;clip-rule:evenodd;}
]]></style><g><path class="st0" d="M36.9,23.5h71.13c8.17,0,14.85,6.69,14.85,14.85v59.83c0,8.17-6.69,14.85-14.85,14.85H36.9 c-8.17,0-14.85-6.68-14.85-14.85V38.35C22.05,30.19,28.73,23.5,36.9,23.5L36.9,23.5z M10.08,73.96c0,2.78-2.26,5.04-5.04,5.04 C2.26,79,0,76.74,0,73.96V19.89C0,14.42,2.24,9.44,5.84,5.84S14.42,0,19.89,0h65.37c2.78,0,5.04,2.26,5.04,5.04 c0,2.78-2.26,5.04-5.04,5.04H19.89c-2.69,0-5.15,1.1-6.93,2.89s-2.88,4.23-2.88,6.93V73.96L10.08,73.96z M84.61,79.4L84.61,79.4 c-2.77-2.75-4.67-5.05-6.58-7.36c-1.64-1.99-3.29-3.98-5.5-6.26L59.46,80.01c-0.08,0.09-0.18,0.17-0.3,0.23 c-0.89,0.46-1.9,0.62-2.87,0.47c-0.95-0.14-1.86-0.58-2.59-1.3c-0.92-0.91-1.39-2.11-1.4-3.31c-0.01-1.21,0.44-2.43,1.35-3.35 c4.92-5.43,10.18-11.76,15.29-16.87c1.05-1.04,2.27-1.55,3.51-1.55c1.21,0,2.41,0.5,3.42,1.48c4.51,4.17,11.24,12.09,15.43,16.93 c0.9,0.91,1.35,2.1,1.35,3.29c0,1.17-0.43,2.35-1.29,3.26l-0.08,0.09c-0.92,0.92-2.12,1.38-3.32,1.38c-1.17,0-2.35-0.43-3.26-1.3 L84.61,79.4L84.61,79.4z"/></g></svg>